<svg width="180" height="60" viewBox="0 0 180 60" fill="none" xmlns="http://www.w3.org/2000/svg">
<path d="M4.6863 24.2766C6.04353 22.2791 5.24968 19.9488 3.32906 20.2305C3.17542 20.2561 2.94494 20.3073 2.79129 20.3585C1.58771 20.8195 -0.102433 22.4584 -4.39119e-07 24.2766C0.358514 26.3764 3.22663 26.3764 4.6863 24.2766Z" fill="#EE3135"/>
<path d="M18.5403 13.1114C20.4865 14.6735 23.9436 13.1626 24.5326 10.4994C24.8911 8.88604 23.9948 6.70935 21.4596 6.83739C17.9257 7.37516 16.5173 11.4469 18.5403 13.1114Z" fill="#EE3135"/>
<path d="M20.8451 4.9936C22.2535 5.9411 25.0192 4.94238 25.685 2.76569C26.0435 1.58771 25.6594 -0.102432 23.7132 1.14646e-06C20.9475 0.409732 19.0269 3.76441 20.8451 4.9936Z" fill="#EE3135"/>
<path d="M17.3367 22.8681C19.6927 24.6607 23.3034 22.9706 23.79 19.872C24.0717 17.9513 22.8681 15.3905 19.8463 15.5442C15.8771 16.1588 14.7759 20.9219 17.3367 22.8681Z" fill="#EE3135"/>
<path d="M12.8809 32.4712C14.6223 30.2945 13.5211 26.3508 10.4993 26.274C8.93724 26.2228 6.70933 27.5032 6.83737 30.3457C7.32393 33.8284 11.1139 34.6991 12.8809 32.4712Z" fill="#EE3135"/>
<path d="M10.4994 35.493C8.88605 35.1344 6.70935 36.0307 6.83739 38.5659C7.34956 42.0999 11.4469 43.5083 13.0858 41.4597C14.6735 39.5134 13.1626 36.0563 10.4994 35.493Z" fill="#EE3135"/>
<path d="M2.79129 27.0935C1.5621 27.1447 -0.0768257 28.2715 -1.14692e-06 30.2945C0.332905 32.7529 3.22663 33.8284 4.6863 32.0359C6.12036 30.2689 5.22407 27.0166 2.79129 27.0935Z" fill="#EE3135"/>
<path d="M2.79128 34.3406C1.6133 33.9821 -0.0768369 34.3662 0.0255959 36.3124C0.409719 39.0525 3.76439 40.9731 4.99359 39.1805C5.94109 37.7721 4.94237 34.9808 2.79128 34.3406Z" fill="#EE3135"/>
<path d="M29.6287 25.6338C25.3521 26.2484 24.4302 31.114 27.2471 33.3675C30.0128 35.5954 34.1357 33.9053 34.4686 30.4481C34.6735 28.3995 33.2906 25.4802 29.6287 25.6338Z" fill="#EE3135"/>
<path d="M52.5992 23.4827C54.0333 21.5877 52.4712 18.7196 50.192 17.8745C48.4507 17.2343 46.1203 17.9001 46.274 20.8451C46.8373 24.507 50.909 25.7106 52.5992 23.4827Z" fill="#EE3135"/>
<path d="M38.2331 22.8681C40.8707 24.6351 44.1486 22.9449 44.0717 19.872C44.0205 18.0282 42.5096 15.3905 39.4366 15.5442C35.5698 16.1588 35.3393 20.9475 38.2331 22.8681Z" fill="#EE3135"/>
<path d="M37.1063 12.8809C39.6927 14.8015 42.8169 13.3675 42.3303 10.4994C42.0743 8.88604 40.3585 6.70935 37.8745 6.83739C34.7759 7.34955 34.7247 11.114 37.1063 12.8809Z" fill="#EE3135"/>
<path d="M59.7183 25.0448C60.5634 23.7644 59.3598 21.5365 57.7721 20.6146C56.21 19.7183 54.5455 20.2561 54.6479 22.484C55.1344 25.8131 58.5915 26.735 59.7183 25.0448Z" fill="#EE3135"/>
<path d="M35.7491 4.6863C37.7209 6.04353 40.0768 5.24968 39.7952 3.32907C39.7695 3.17542 39.7183 2.94494 39.6671 2.79129C39.2318 1.58771 37.5928 -0.0768243 35.7491 0.0256085C33.6236 0.358515 33.6236 3.22663 35.7491 4.6863Z" fill="#EE3135"/>
<path d="M27.5288 12.8809C29.7055 14.6223 33.6492 13.5211 33.726 10.4994C33.7772 8.93726 32.4968 6.70935 29.6543 6.83739C26.1716 7.32394 25.3009 11.114 27.5288 12.8809Z" fill="#EE3135"/>
<path d="M27.2728 22.6376C29.936 24.7631 34.0589 23.1498 34.2894 19.872C34.4174 18.0282 33.009 15.3905 29.6287 15.5442C25.6338 16.1076 24.6863 20.5634 27.2728 22.6376Z" fill="#EE3135"/>
<path d="M27.9641 4.6863C29.7311 6.12036 32.9833 5.22407 32.9065 2.79129C32.8553 1.5621 31.7285 -0.0768232 29.7311 0.0256096C27.2471 0.358516 26.1716 3.22663 27.9641 4.6863Z" fill="#EE3135"/>
<path d="M10.4994 17.6697C8.88605 17.9257 6.70935 19.6415 6.83739 22.1255C7.32395 25.2241 11.114 25.3009 12.8809 22.9193C14.8015 20.3329 13.3675 17.2087 10.4994 17.6697Z" fill="#EE3135"/>
<path d="M40.128 36.4149C36.0563 37.0551 35.0832 41.8694 37.7721 43.8156C40.0256 45.4289 43.3291 43.918 43.9949 40.9475C44.4046 38.9245 43.3291 36.2356 40.128 36.4149Z" fill="#EE3135"/>
<path d="M40.2049 25.6338C36.0307 26.2996 35.3905 31.5237 38.3355 33.6236C40.9219 35.4674 44.3278 33.726 44.6351 30.4481C44.8656 28.0154 43.2522 25.4802 40.2049 25.6338Z" fill="#EE3135"/>
<path d="M37.516 54.6479C34.1869 55.1344 33.2907 58.5916 34.9552 59.7183C36.2356 60.5634 38.4635 59.3598 39.3854 57.7721C40.2817 56.21 39.7439 54.5455 37.516 54.6479Z" fill="#EE3135"/>
<path d="M39.1805 46.274C35.493 46.8374 34.2894 50.9091 36.5429 52.5992C38.4379 54.0333 41.306 52.4712 42.1511 50.1921C42.7913 48.4507 42.0999 46.1204 39.1805 46.274Z" fill="#EE3135"/>
<path d="M50.1921 35.3905C48.1946 35.4161 46.146 37.2343 46.274 39.8976C46.8118 43.201 50.6018 43.073 52.42 40.4097C54.1613 37.9001 52.5992 35.3649 50.1921 35.3905Z" fill="#EE3135"/>
<path d="M50.192 26.3252C48.4507 25.9923 46.1203 27.2215 46.274 30.3713C46.8373 34.315 50.7554 34.4942 52.4199 32.2151C54.1613 29.8335 52.5992 26.7862 50.192 26.3252Z" fill="#EE3135"/>
<path d="M57.7721 27.1959C56.1844 26.7862 54.5454 27.9385 54.6479 30.3457C55.0832 33.5211 58.105 33.598 59.4622 31.7029C60.7426 29.8592 59.5902 27.6569 57.7721 27.1959Z" fill="#EE3135"/>
<path d="M57.7721 34.2126C56.1844 34.3662 54.5454 36.0051 54.6479 38.1562C55.0576 40.717 57.7721 40.2561 59.3086 38.0282C60.7938 35.8515 59.6927 34.0333 57.7721 34.2126Z" fill="#EE3135"/>
<path d="M29.6799 54.6479C26.5045 55.0832 26.4277 58.105 28.3227 59.4622C30.1409 60.7682 32.3688 59.5903 32.8297 57.7721C33.2395 56.1588 32.0615 54.5455 29.6799 54.6479Z" fill="#EE3135"/>
<path d="M21.8438 54.6479C19.283 55.0576 19.7439 57.7721 21.9718 59.3086C24.1741 60.8195 25.9667 59.7183 25.7875 57.7721C25.6338 56.1588 23.9949 54.5455 21.8438 54.6479Z" fill="#EE3135"/>
<path d="M24.6095 50.1921C24.5839 48.1946 22.7657 46.146 20.1024 46.274C16.799 46.8118 16.927 50.6018 19.5903 52.42C22.0999 54.1613 24.6351 52.5992 24.6095 50.1921Z" fill="#EE3135"/>
<path d="M23.8412 40.9219C23.9437 38.9245 22.3559 36.2356 19.1037 36.3892C15.3905 37.0038 15.032 41.4853 17.7209 43.5595C20.2561 45.5314 23.6876 44.0461 23.8412 40.9219Z" fill="#EE3135"/>
<path d="M29.6543 46.274C25.7106 46.8374 25.5314 50.7554 27.8105 52.42C30.1921 54.1613 33.2394 52.5992 33.7004 50.1921C34.0333 48.4507 32.8041 46.1204 29.6543 46.274Z" fill="#EE3135"/>
<path d="M27.4264 43.5851C29.9872 45.5314 33.8028 44.0461 34.2637 40.9475C34.5454 38.9501 33.1114 36.2612 29.6287 36.4149C25.5057 37.0038 24.6863 41.4853 27.4264 43.5851Z" fill="#EE3135"/>
<path d="M17.1575 33.6236C19.7183 35.4674 23.2266 33.7004 23.5339 30.4481C23.7644 28.0154 22.0999 25.4802 19.0013 25.6338C14.8527 26.3252 14.2125 31.5237 17.1575 33.6236Z" fill="#EE3135"/>
<path d="M92.1639 28.9373H80.0768V16.4917H73.1114V46.274H80.0768V33.7004H92.1639V46.274H99.1293V16.4917H92.1639V28.9373Z" fill="#183665"/>
<path d="M121.844 34.6735C121.46 34.315 121.024 34.0333 120.563 33.8028C121.536 33.4443 122.382 32.9577 123.124 32.3944C123.867 31.831 124.481 31.1652 124.994 30.4481C125.506 29.7311 125.89 28.9373 126.146 28.0666C126.402 27.1959 126.53 26.2996 126.53 25.3265C126.53 24.0717 126.3 22.8937 125.864 21.8182C125.429 20.7426 124.738 19.8207 123.764 19.0269C122.791 18.233 121.562 17.6184 120.051 17.1831C118.54 16.7478 116.697 16.5173 114.545 16.5173H104.866V46.2996H111.78V35.2881H113.547C114.085 35.2881 114.494 35.3649 114.776 35.5442C115.058 35.7234 115.314 35.9795 115.544 36.3636L120.487 45.0192C120.999 45.8899 121.818 46.3252 122.971 46.3252H129.219L122.919 35.9283C122.612 35.4417 122.254 35.032 121.844 34.6735ZM119.513 27.6825C119.334 28.2458 119.027 28.7324 118.592 29.1677C118.182 29.6031 117.618 29.9104 116.978 30.1665C116.312 30.3969 115.519 30.525 114.571 30.525H111.78V21.6645H114.571C116.364 21.6645 117.67 22.0231 118.515 22.7657C119.36 23.5083 119.795 24.5327 119.795 25.8387C119.821 26.5045 119.718 27.0935 119.513 27.6825Z" fill="#183665"/>
<path d="M148.604 16.4917H142.561L128.784 35.0064L129.449 38.1306C129.526 38.4891 129.731 38.7964 130.064 39.0525C130.397 39.3086 130.73 39.411 131.14 39.411H143.124V46.2484H148.656V39.4366H150.499C150.884 39.4366 151.191 39.3086 151.396 39.0781C151.601 38.8476 151.703 38.5659 151.703 38.2586V34.6991H148.63V16.4917H148.604ZM143.15 25.4033C143.124 25.9667 143.099 26.4789 143.099 26.9398V34.6991H135.442L143.303 23.6876C143.227 24.2766 143.175 24.84 143.15 25.4033Z" fill="#183665"/>
<path d="M176.517 38.9757C176.364 38.822 176.21 38.7196 176.056 38.6684C175.903 38.6172 175.723 38.5659 175.57 38.5659C175.365 38.5659 175.16 38.6172 174.981 38.694C174.802 38.7708 174.622 38.8988 174.443 39.0269C174.033 39.3854 173.624 39.6927 173.239 39.9488C172.855 40.1793 172.42 40.3841 171.985 40.5122C171.524 40.6658 171.063 40.7682 170.525 40.8195C170.013 40.8707 169.424 40.9219 168.809 40.9219C167.708 40.9219 166.709 40.717 165.736 40.2817C164.789 39.872 163.944 39.2318 163.227 38.4379C162.51 37.6184 161.946 36.6197 161.536 35.4417C161.127 34.2638 160.922 32.9065 160.922 31.37C160.922 29.8592 161.101 28.5019 161.485 27.3239C161.869 26.146 162.382 25.1472 163.073 24.3278C163.764 23.5083 164.584 22.8937 165.531 22.484C166.479 22.0743 167.529 21.8438 168.681 21.8438C169.398 21.8438 170.038 21.895 170.576 21.9974C171.114 22.0999 171.575 22.2279 171.985 22.4072C172.394 22.5608 172.727 22.7401 173.035 22.9193C173.316 23.0986 173.598 23.2778 173.854 23.4315C174.11 23.5851 174.341 23.7132 174.545 23.8412C174.776 23.9437 175.006 23.9949 175.237 23.9949C175.595 23.9949 175.903 23.9181 176.108 23.7644C176.312 23.6108 176.492 23.4315 176.645 23.2522L178.976 20.128C178.412 19.5647 177.772 19.0269 177.055 18.5403C176.338 18.0538 175.544 17.6184 174.673 17.2855C173.803 16.927 172.881 16.6709 171.908 16.4661C170.909 16.2612 169.859 16.1588 168.758 16.1588C166.556 16.1588 164.558 16.5429 162.714 17.2855C160.896 18.0282 159.309 19.0781 158.003 20.4353C156.697 21.7926 155.672 23.3803 154.955 25.2497C154.238 27.1191 153.88 29.1421 153.88 31.37C153.88 33.5467 154.213 35.5698 154.878 37.4392C155.544 39.3086 156.492 40.8963 157.746 42.2535C159.001 43.6108 160.512 44.6607 162.305 45.4545C164.097 46.2228 166.12 46.6069 168.399 46.6069C170.858 46.6069 173.009 46.1972 174.802 45.4033C176.62 44.6095 178.105 43.4315 179.309 41.8694L176.517 38.9757Z" fill="#183665"/>
</svg>
